<svg xmlns="http://www.w3.org/2000/svg" xmlns:xlink="http://www.w3.org/1999/xlink" version="1.1" width="1000" height="1000" viewBox="0 0 1000 1000" xml:space="preserve">
<desc>Created with Fabric.js 3.5.0</desc>
<defs>
</defs>
<rect x="0" y="0" width="100%" height="100%" fill="rgba(255,255,255,0)"/>
<g transform="matrix(-1.7479 -0.3123 -0.3123 1.7479 500.0071 500.0092)" id="240659">
<g style="" vector-effect="non-scaling-stroke">
		<g transform="matrix(1 0 0 1 -56.9165 102.5339)">
<path style="stroke: none; stroke-width: 1; stroke-dasharray: none; stroke-linecap: butt; stroke-dashoffset: 0; stroke-linejoin: miter; stroke-miterlimit: 4; is-custom-font: none; font-file-url: none; fill: #8C7CF0 ; fill-rule: nonzero; opacity: 1;" transform=" translate(-199.0835, -358.5339)" d="M 96.85 286.62 a 8 8 0 0 0 -12.53 8.25 C 102.07 373.28 172.3 432 256 432 a 175.31 175.31 0 0 0 52.41 -8 a 8 8 0 0 0 0.79 -15 a 1120 1120 0 0 1 -109.48 -55.61 A 1126.24 1126.24 0 0 1 96.85 286.62 Z" stroke-linecap="round"/>
</g>
		<g transform="matrix(1 0 0 1 -0.0101 -5.995)">
<path style="stroke: none; stroke-width: 1; stroke-dasharray: none; stroke-linecap: butt; stroke-dashoffset: 0; stroke-linejoin: miter; stroke-miterlimit: 4; is-custom-font: none; font-file-url: none; fill: #8C7CF0 ; fill-rule: nonzero; opacity: 1;" transform=" translate(-255.99, -250.005)" d="M 492.72 339.51 c -4.19 -5.58 -9.11 -11.44 -14.7 -17.53 a 15.83 15.83 0 0 0 -26.56 5.13 c 0 0.16 -0.11 0.31 -0.17 0.47 a 15.75 15.75 0 0 0 3.15 16.06 c 22.74 25 26.42 38.51 25.48 41.36 c -2 2.23 -17.05 6.89 -58.15 -3.53 q -8.83 -2.24 -19.32 -5.46 q -6.76 -2.08 -13.79 -4.49 h 0 a 176.76 176.76 0 0 0 19.54 -27.25 c 0.17 -0.29 0.35 -0.58 0.52 -0.88 A 175.39 175.39 0 0 0 432 256 A 178.87 178.87 0 0 0 431 237 C 421.43 148.83 346.6 80 256 80 A 175.37 175.37 0 0 0 149.6 115.89 a 177.4 177.4 0 0 0 -45.83 51.84 c -0.16 0.29 -0.34 0.58 -0.51 0.87 a 175.48 175.48 0 0 0 -13.83 30.52 q -5.59 -4.87 -10.79 -9.67 c -5.39 -5 -10.17 -9.63 -14.42 -14 C 34.65 145.19 31.13 129.84 32.06 127 c 2 -2.23 15.54 -5.87 48.62 1.31 A 15.82 15.82 0 0 0 96.22 123 l 0.36 -0.44 a 15.74 15.74 0 0 0 -8.67 -25.43 A 237.38 237.38 0 0 0 64.13 93 C 33.41 89.47 13.3 95.52 4.35 111 C 1.11 116.58 -2 126.09 1.63 139.6 C 7 159.66 26.14 184 53.23 209.5 c 8.63 8.13 18.06 16.37 28.12 24.64 c 7.32 6 15 12.06 22.9 18.08 q 7.91 6 16.15 12 T 137.1 276 c 25.41 17.61 52.26 34.52 78.59 49.69 q 14.34 8.26 28.64 16 t 28.37 14.81 c 21.9 11 43.35 20.92 63.86 29.43 q 13.19 5.48 25.81 10.16 c 11.89 4.42 23.37 8.31 34.31 11.59 l 1.1 0.33 c 25.73 7.66 47.42 11.69 64.48 12 H 464 c 21.64 0 36.3 -6.38 43.58 -19 C 516.67 385.39 511.66 364.69 492.72 339.51 Z" stroke-linecap="round"/>
</g>
</g>
</g>
</svg>