<?xml version="1.0" standalone="no"?>
<!DOCTYPE svg PUBLIC "-//W3C//DTD SVG 20010904//EN"
 "http://www.w3.org/TR/2001/REC-SVG-20010904/DTD/svg10.dtd">
<svg version="1.0" xmlns="http://www.w3.org/2000/svg"
 width="580.000000pt" height="141.000000pt" viewBox="0 0 580.000000 141.000000"
 preserveAspectRatio="xMidYMid meet">

<g transform="translate(0.000000,141.000000) scale(0.100000,-0.100000)"
fill="#24254b" stroke="#111633" stroke-width="5" stroke-linecap="round">
<path d="M0 1205 l0 -205 300 0 300 0 0 -100 0 -100 -200 0 -200 0 0 -200 0
-200 200 0 200 0 0 -100 0 -100 -300 0 -300 0 0 -100 0 -100 2000 0 2000 0 0
500 0 500 300 0 300 0 0 -400 0 -400 -200 0 -200 0 0 -100 0 -100 800 0 800 0
0 100 0 100 -100 0 -100 0 0 300 0 300 -100 0 -100 0 0 -300 0 -300 -100 0
-100 0 0 300 0 300 -100 0 -100 0 0 -300 0 -300 -100 0 -100 0 0 400 0 400
500 0 500 0 0 205 0 205 -2400 0 -2400 0 0 -100 0 -100 -100 0 -100 0 0 100 0
100 -400 0 -400 0 0 -205z m1000 -605 l0 -400 -100 0 -100 0 0 400 0 400 100
0 100 0 0 -400z m800 300 l0 -100 -200 0 -200 0 0 -100 0 -100 -100 0 -100 0
0 200 0 200 300 0 300 0 0 -100z m800 0 l0 -100 -200 0 -200 0 0 -200 0 -200
200 0 200 0 0 -100 0 -100 -300 0 -300 0 0 400 0 400 300 0 300 0 0 -100z
m800 -300 l0 -400 -300 0 -300 0 0 400 0 400 300 0 300 0 0 -400z m-1600 -200
l0 -200 -300 0 -300 0 0 100 0 100 200 0 200 0 0 100 0 100 100 0 100 0 0
-200z m2000 -100 l0 -100 -100 0 -100 0 0 100 0 100 100 0 100 0 0 -100z"/>
<path d="M3000 600 l0 -200 100 0 100 0 0 200 0 200 -100 0 -100 0 0 -200z"/>
<path d="M4200 600 l0 -200 100 0 100 0 0 200 0 200 -100 0 -100 0 0 -200z"/>
</g>
</svg>
