<svg version="1.2" xmlns="http://www.w3.org/2000/svg" viewBox="0 0 344 181" width="344" height="181">
	<style>
		.s0 { fill: #070916 }
		.s1 { fill: #8C7CF0 }
	</style>
	<g id="svgg">
		<path id="path0" fill-rule="evenodd" class="s0" d="m150.4 64.8c1.2 4.1 1.2 5.5 1.2 43.6v36.8h12.5l0.1-28.9v-28.9l0.9-2.3c6.5-18.2 29.8-18.4 36-0.3 1.2 3.6 1.3 6.4 1.3 34.1v26.3h12.5l0.1-38.8c0.1-42.2 0-39.4 1.7-43.5 6.9-16.3 29.2-15.5 35 1.2 1.5 4.2 1.5 5.5 1.5 44.7v36.4h25.4c14.1 0 25.8 0.2 26.5 0.3 6.8 1.6 6.6 12-0.2 13.2-1.5 0.3-267.3 0.3-268.8 0-5.4-0.9-7.1-8.1-2.9-11.8 1.8-1.6 1.4-1.5 15.8-1.6l13.4-0.1 0.1-11.9c0.2-12.7 0.2-12.9 1.8-16.6 5.7-13.6 23.5-15.9 32.2-4.1 3.6 4.9 4.3 8.4 4.3 22.8v9.8h12.5v-36.7c0-38.6 0.1-41.7 1.2-44.4 2.6-6.4 7.9-11.3 13.6-12.7 9.4-2.2 19.6 4 22.3 13.4zm-22.8 1.9c-1.6 2.1-1.5 0.3-1.5 40.9l-0.1 37.6h12.8v-37.4c0-36.7 0-37.5-0.6-39-0.6-1.7-1.9-3.1-3.4-3.9-2.2-1.1-5.6-0.2-7.2 1.8zm101.7 0c-1.7 2.1-1.6 0.3-1.6 40.9v37.6h12.8l-0.1-37.8c-0.1-35.7-0.1-37.9-0.6-39-0.7-1.5-1.8-2.7-3.3-3.4-2.2-1.2-5.7-0.4-7.2 1.7zm-51.5 21.2l-0.8 1.3-0.1 56h12.7v-27.1c0-27.4 0-27.7-1-30.1-0.6-1.2-2.2-2.6-3.7-3.1-2.9-0.8-5.5 0.3-7.1 3zm-100.4 32.3c-2.1 2-2 1.7-2.1 14l-0.1 11h12.8v-10.3c0-12.7-0.3-13.9-3.6-15.7-2.4-1.3-5-0.9-7 1zm16.3 61.9h5.6v3.8h-5.6zm-26.5 8.8c2.6 0.5 5.4 2.6 6.5 5 1 2.3 1 2.3-2 2.3h-2.7l-0.5-1c-1.1-2.4-3.1-3.4-5.5-2.7-1.6 0.5-3.2 2.2-3.2 3.3 0 0.4-0.2 0.7-0.3 0.8-0.2 0.1-0.3 1.9-0.3 4.2 0 2.3 0.1 4.1 0.3 4.2 0.1 0.1 0.3 0.5 0.3 0.8 0 2.4 4.4 4.5 6.8 3.2 0.8-0.5 2.4-2.6 2.4-3.3 0-0.5 0.3-0.6 2.8-0.6 3.3 0 3.4 0.2 2 2.8-0.9 1.8-2.2 3.1-3.8 3.9-0.7 0.3-1.4 0.6-1.7 0.8-0.8 0.4-8 0.4-8.2 0 0-0.2-0.3-0.4-0.5-0.4-0.6 0-1.9-0.8-3.3-2.2-1.2-1-1.6-1.7-2.5-3.9-1-2.5-0.6-9.6 0.8-12.1 1.1-2.2 4.7-4.9 6.5-4.9 0.5 0 1.1-0.2 1.3-0.4 0.5-0.2 2.5-0.2 4.8 0.2zm63.6 0c2.5 0.5 5.9 2.9 5.9 4.3 0 0.3 0.2 0.7 0.4 0.8 0.5 0.6 0.3 0.7-2.2 0.7-2.3 0.1-2.3 0.1-3.1-0.9-1.8-2.2-6.6-2.4-8.6-0.4-0.6 0.6-0.5 2.6 0.1 3.1 1 0.8 4.6 2.1 6.1 2.1 0.4 0 0.9 0.1 1 0.3 0.1 0.1 0.5 0.3 1 0.3 0.5 0 1.1 0.1 1.4 0.2 0.3 0.2 0.9 0.4 1.3 0.6 5.1 2.4 5 9.7-0.2 11.8-0.6 0.3-1.4 0.6-1.7 0.8-0.7 0.4-9.1 0.4-9.9 0-3.6-1.7-4.9-2.9-5.3-4.6-0.2-0.8-0.4-0.7 3.3-1.3 1.2-0.2 1.3-0.1 1.6 0.6 1.3 3.4 10 3.2 10.9-0.3 0.5-2-1.5-3.3-6.5-4.3-3.1-0.6-3.5-0.7-5.5-1.7-5.4-2.7-3.3-11.8 2.8-12 0.5 0 1.1-0.1 1.4-0.3 0.6-0.2 3.9-0.1 5.8 0.2zm33.8 1c2.3 1.2 4.2 3.5 4.2 4.8 0 0.3 0.2 0.6 0.3 0.7 0.9 0.6 0.1 0.8-2.5 0.8h-2.7l-0.6-1.1c-1.8-3.9-6.6-3.8-8.5 0.2-0.8 1.6-1 9.7-0.3 10.4 0.2 0.2 0.4 0.7 0.4 1 0 0.2 0.1 0.5 0.3 0.5 0.1 0 0.3 0.2 0.3 0.4 0 1 2.2 1.8 4.6 1.7 1.5-0.1 3.7-2.3 3.7-3.8 0-0.3 0.6-0.4 2.8-0.4 3 0 3.3 0.2 2.6 1.7-0.2 0.3-0.5 0.9-0.7 1.4-0.5 1.1-2.4 2.9-3.7 3.6-0.6 0.3-1.4 0.6-1.7 0.8-0.8 0.4-7.4 0.4-8.1 0-0.3-0.1-1.1-0.5-1.7-0.8-1.3-0.7-3.5-2.7-3.5-3.3 0-0.2-0.1-0.4-0.2-0.4-0.3 0-1.1-2.2-1.6-4.5-0.5-2.3 0.1-7.6 0.9-8.4 0.2-0.2 0.3-0.6 0.3-0.9 0-0.2 0.2-0.5 0.3-0.5 0.2 0 0.3-0.2 0.3-0.4 0-1.3 3.9-3.9 6.7-4.6 2.2-0.5 6.2 0 8.1 1.1zm29.2-1c3.2 0.6 6.6 3.5 7.3 6.3 0.8 3.5 0.8 8.3 0 10.9-0.7 2.4-4 6.1-5.5 6.1-0.3 0-0.6 0.2-0.8 0.4-0.4 0.4-7.8 0.4-8.6 0-0.3-0.2-1.1-0.5-1.7-0.8-2.3-1.2-4.7-4.2-4.7-6 0-0.3-0.1-0.7-0.3-0.8-0.1-0.1-0.3-1.9-0.3-4.2 0-2.3 0.2-4.1 0.3-4.2 0.2-0.1 0.3-0.4 0.3-0.7 0-2.5 4.6-6.8 7.3-6.8 0.5 0 1.1-0.2 1.4-0.4 0.4-0.3 3.1-0.2 5.3 0.2zm69.6 4.3c0.9 2.1 1.1 2.6 1.4 5.1 0.9 5.6-1 11.4-4.3 13.6-2.8 2-7.7 1.2-9.8-1.5-1.4-1.8-1.5-1.5-1.6 5.5v6.4h-5.7v-33.2h5.7v1.6c0 2.1 0.4 2.3 1.8 0.6 0.7-0.7 1.6-1.5 2.1-1.8 0.6-0.2 1.3-0.5 1.7-0.7 3-1.2 7.1 0.8 8.7 4.4zm23.2-1.5c0.1 1.2 0.7 1 1.7-0.6 2-3.1 5.5-3.4 7.5-0.8 1.1 1.4 1.2 2.5 1.3 13.1l0.2 9.4h-4.5v-7.7c0-10.6-0.5-13.1-2.4-13.1-2.3 0-3 3.1-3 13.6v7.2h-4.4v-9.4c0-10.6-0.2-11.4-2.1-11.4-2.3 0-2.7 2-2.9 12.7l-0.1 8.1h-4.5v-23.7h3.8l0.2 1.5c0.3 2.3 0.3 2.3 2.3-0.4 0.4-0.6 1.1-1.2 1.6-1.4 2.5-0.8 4.9 0.6 5.3 2.9zm-193.2-2.6h5.9v9.8c0 11.5-0.5 10.4 4.6 10.4h3.4v3.5h-22.3v-3.5h4c5.2 0 4.7 0.9 4.6-8.5l-0.1-8-3.2-0.1-3.2-0.1v-1.6c0-0.8 0.1-1.6 0.2-1.7 0.1-0.2 2.9-0.2 6.1-0.2zm92.6 6.1c-1.3 2.5-1.3 8.4 0 11.4 1.8 4.1 8.4 3.5 9.4-1 0.4-1.7 0.5-8.3 0.2-8.6-0.2-0.2-0.3-0.7-0.3-1.1 0-0.5-0.4-1.3-1-1.9-2.4-2.7-6.6-2.1-8.3 1.2zm65.1-1.4c-3.6 3.9-2.3 14.3 1.9 15.5 3.8 1.1 5.9-1.9 5.9-8.5 0-5.3-0.8-7.2-3.4-8.3-1.7-0.7-2.8-0.4-4.4 1.3zm-31.7 12.8h5.6v6.2h-5.6z"/>
		<path id="path2" fill-rule="evenodd" class="s1" d="m117.4 25.5c0.8 1.6 0.8 1.8-0.3 2.6-2.6 1.7-4.8 4.4-6.2 7.5-1.8 4.1-1.6-1-1.7 56.1-0.1 40.5-0.2 51.9-0.5 52.1-0.5 0.3-1.9 0.3-2.6-0.1-0.7-0.3-0.9-99.9-0.2-103.9 0.9-5.7 4.2-11.1 8.7-14.4 1.9-1.4 2-1.4 2.8 0.1zm101.1 0.3c1 1.5 0.9 1.5-1 3.2-2.8 2.4-4.7 5.3-6.1 9.2-0.5 1.6-0.5 4-0.7 53.8l-0.1 52.2-3.4 0.2v-51.7c0-42.9 0-52 0.4-53.6 1.2-5.8 4.2-10.5 8.5-13.6 1.6-1.1 1.5-1.2 2.4 0.3zm23.9 2c0.9 0 4.1 5.1 5.2 8.2 1.1 2.9 1.5 8.3 1.4 16.3l-0.1 6.5-0.8-1.1c-0.5-0.7-1.3-1.5-1.9-2l-1-0.8v-6.8c0-9.1-1-13.1-4.2-16.5-1.1-1.2-1.1-1.6 0.1-2.8 0.5-0.5 1.1-1 1.3-1zm-99.6 2.2c3.6 5.1 4.1 7 4.2 16.1 0.1 4.1 0.2 8.6 0.2 10.1 0.1 2.4 0.1 2.5-0.4 1.9-0.4-0.7-3-3.2-3.2-3.2-0.1 0-0.1-3.1-0.1-6.9 0.1-8.7-0.8-12.7-3.8-16.1-1.1-1.3-1.1-1.7 0.2-2.8 1.4-1.3 1.4-1.2 2.9 0.9zm93.5 16.3l0.1 4.7h-2-2v-4.4c0-3.6-0.1-4.7-0.5-5.5l-0.5-1.1 1.1-1c2.3-2.1 3.5 0.2 3.7 7.3zm-101.6 0l0.1 4.7h-3.9v-4.5c0-2.5-0.1-4.7-0.3-5-0.4-0.8-0.2-1.5 1-2.3 2-1.4 3 0.7 3.1 7.1zm34.5-0.8c0.8 1.6 0.9 1.4-1.1 2.8-2.6 1.8-4.7 4.2-6 7-2.1 4.4-1.9 1.3-1.9 47.8v42.1h-3.7v-41.8c0-47.1-0.2-44.6 2.4-50 1.3-2.7 5-6.8 7.5-8.4 1.7-1.1 2.1-1 2.8 0.5zm24.7 5c3.5 4.7 4.4 9.3 4.5 20.9v7.5l-3.9-3.9v-6.9c0-8.7-0.6-11.3-3.6-15.6-0.8-1.1-0.7-1.3 0.5-2.3 1.3-1.2 1.4-1.2 2.5 0.3zm-72.3 1.8c0.5 0.6 0.6 1.8 0.2 2.2-0.1 0.1-1 0.8-1.8 1.5l-1.6 1.3v-2.5c0-1.8 0.1-2.6 0.4-2.7 0.7-0.3 2.5-0.2 2.8 0.2zm98.5 0.2h1.6c1.4 0 1.7 0.1 1.8 0.6 0.1 0.3 0.3 0.6 0.5 0.6 0.2 0-0.1 0.4-0.7 0.8-0.5 0.4-1.6 1.4-2.2 2l-1.2 1.3 0.1-2.7zm-34.5 14l0.1 4.9-1.9-0.1c-1.1 0-2-0.1-2-0.1 0-0.1-0.1-2.3-0.1-5.1l-0.1-5 1.2-0.7c2.2-1.3 2.5-0.5 2.8 6.1zm-54.7-2.1h1.5c0.8 0 1.7 0.2 2 0.3 0.5 0.3 0.5 3 0.4 40.4v40.2h-3.9zm101.6 0h1.5c0.9 0 1.8 0.1 2.1 0.2 0.4 0.3 0.4 3.1 0.4 40.5l-0.1 40.1h-3.9zm-61.5 6.9l1.7 0.1 0.3 3.1-4.1 3.3v-2.6c0.1-1.5 0.1-2.9 0.2-3.3 0.2-0.6 0.4-0.7 1.9-0.6zm-81.2 10c4.9 4.9 6.4 8.9 6.5 17.9 0.1 3.5 0.2 7.9 0.2 9.8l0.1 3.4-3.8-3.8 0.1-6.9c0-5.1-0.1-7.3-0.4-8.5-4.8-18.2-27.4-18.9-33.3-1-0.5 1.6-0.6 2.8-0.7 14.3-0.1 7.8-0.3 12.6-0.5 12.8-0.3 0.4-20.1 0.6-21.1 0.2-0.4-0.1-0.5-0.6-0.5-1.8v-1.6l18.3-0.1 0.2-11c0.1-6.3 0.3-11.6 0.5-12.4 1.9-8 7.2-13.9 14.8-16.3 6.2-2 14.9 0.2 19.6 5zm95.1 3.6l0.8 0.3v30l-0.1 30h-3.9v-30.1c0-16.5 0.1-30.2 0.2-30.3 0.3-0.3 2-0.2 3 0.1zm-101 15.3l0.2 4.8h-1.9-2v-4.5c0-4.7-0.1-5.2-1.8-6.9-1.6-1.6-4.6-1.2-6.2 1l-0.9 1.1-0.1 6.3v6.2l-1.1 0.9c-0.7 0.5-1.2 1-1.3 1.1-1.3 1.3-1.2 1.5-1.1-7 0.1-10 0.7-11.6 5-13.5 6.3-2.8 10.9 1.6 11.2 10.5zm216.5 16.3c0.6 0.4 0.2 2.2-0.6 2.9-0.2 0.2-7.5 0.3-17.9 0.3l-17.5 0.1-1 1c-1.7 1.6-1.7 2.2-1.7 13.8v10.6h-3.6v-11.1c0-14.1 0.6-15.9 5.5-17.6 1.4-0.5 36.1-0.5 36.8 0zm-220.2 2h1.5c2.3 0 2.3-0.1 2.3 4.7-0.1 5.1-0.2 5.4-2 5.4-1.7 0-1.6 0.3-1.7-5.4zm-17.8 10.8l0.1 1.9c0 1 0 1.9 0 1.9-0.1 0.1-7.4 0-16.3-0.1l-16.2-0.1-0.1-0.7c0-0.3 0.1-1.1 0.4-1.7l0.4-1zm208.5 0.1h10.2c11.2 0 10.6-0.1 10.6 1.8 0 1.9 0.4 1.8-8.5 1.8-10.1 0-9.1-0.8-9 6.5l0.1 5.7h-3.6l0.1-7.9zm-188.9 29.5c0.7 0 1 0 0.7 0.1-0.3 0.1-0.8 0.1-1.2 0-0.3 0-0.1-0.1 0.5-0.1zm12.8 0c0.7 0 1 0 0.7 0.1-0.3 0.1-0.8 0.1-1.2 0-0.4 0-0.1-0.1 0.5-0.1zm25.6 0c0.6 0 0.9 0 0.6 0.1-0.2 0.1-0.8 0.1-1.1 0-0.4 0-0.2-0.1 0.5-0.1zm12.5 0c0.6 0 0.9 0 0.6 0.1-0.3 0.1-0.8 0.1-1.2 0-0.3 0-0.1-0.1 0.6-0.1zm25.2 0c0.8 0 1.2 0.1 0.8 0.1-0.3 0.1-1 0.1-1.4 0-0.5 0-0.2-0.1 0.6-0.1zm12.8 0c0.8 0 1.2 0.1 0.8 0.1-0.3 0.1-1 0.1-1.5 0-0.4 0-0.1-0.1 0.7-0.1zm12.6 0c0.9 0 1.3 0.1 0.8 0.1-0.4 0.1-1.1 0.1-1.6 0-0.4 0-0.1-0.1 0.8-0.1zm12.7 0c0.8 0 1.1 0.1 0.8 0.1-0.4 0.1-1.1 0.1-1.5 0-0.5 0-0.2-0.1 0.7-0.1zm25.5 0c0.8 0 1.2 0.1 0.8 0.1-0.3 0.1-1 0.1-1.4 0-0.5 0-0.2-0.1 0.6-0.1zm12.6 0c0.9 0 1.3 0.1 0.9 0.1-0.5 0.1-1.2 0.1-1.7 0-0.4 0-0.1-0.1 0.8-0.1zm25.5 0c0.8 0 1.1 0.1 0.8 0.1-0.4 0.1-1.1 0.1-1.5 0-0.5 0-0.2-0.1 0.7-0.1zm12.7 0c0.8 0 1.2 0.1 0.9 0.1-0.4 0.1-1.1 0.1-1.5 0-0.5 0-0.2-0.1 0.6-0.1z"/>
	</g>
</svg>
